<?xml version="1.0" encoding="UTF-8"?>
<svg id="Layer_1" data-name="Layer 1" xmlns="http://www.w3.org/2000/svg" viewBox="0 0 483.35 129.32">
  <defs>
    <style>
      .cls-1 {
        fill: #f25f77;
      }

      .cls-2, .cls-3 {
        fill: #515bf5;
      }

      .cls-4, .cls-3 {
        opacity: .6;
      }
    </style>
  </defs>
  <g>
    <path class="cls-2" d="m5.38,87.61h-1.34c-1.99,0-3.6-1.61-3.6-3.6s1.61-3.6,3.6-3.6h1.34c7.77,0,12.51-4.52,12.71-4.71l53.21-53.21c.7-.71,17.81-17.76,45.26-17.76,1.99,0,3.6,1.61,3.6,3.6s-1.61,3.6-3.6,3.6c-24.33,0-40,15.48-40.15,15.64l-53.24,53.24c-.28.28-6.94,6.8-17.78,6.8Z"/>
    <g class="cls-4">
      <path class="cls-2" d="m5.31,106.1h-1.27c-1.99,0-3.6-1.61-3.6-3.6s1.61-3.6,3.6-3.6h1.27c15.74,0,25.69-9.97,25.79-10.07l53.22-53.22c1-1.06,12.13-12.39,30.15-12.39h2.08c1.99,0,3.6,1.61,3.6,3.6s-1.61,3.6-3.6,3.6h-2.08c-15.26,0-24.83,10.04-24.93,10.14l-.09.1-53.23,53.23c-.44.46-12.02,12.21-30.91,12.21Z"/>
    </g>
    <path class="cls-1" d="m8.83,124.58h-4.79c-1.99,0-3.6-1.61-3.6-3.6s1.61-3.6,3.6-3.6h4.79c18.18,0,34.57-14.78,35.43-15.57l53.14-53.14c.89-.93,7.1-6.97,19.15-6.97,1.99,0,3.6,1.61,3.6,3.6s-1.61,3.6-3.6,3.6c-9.39,0-13.74,4.52-13.92,4.71l-.11.12-53.31,53.3c-.76.72-18.92,17.55-40.39,17.55Z"/>
    <path class="cls-1" d="m116.55,87.61h-4.42c-7.91,0-14.44-6.54-14.72-6.82L44.21,27.59c-.18-.19-15.52-15.65-33.74-15.65h-6.43c-1.99,0-3.6-1.61-3.6-3.6s1.61-3.6,3.6-3.6h6.43c21.3,0,38.15,17.07,38.86,17.79l53.19,53.19c1.31,1.31,5.56,4.69,9.61,4.69h4.42c1.99,0,3.6,1.61,3.6,3.6s-1.61,3.6-3.6,3.6Z"/>
    <path class="cls-3" d="m116.55,106.1h-3.21c-16.21,0-28.42-11.68-28.93-12.17L31.04,40.56c-.09-.09-9.67-10.14-22.78-10.14h-4.22c-1.99,0-3.6-1.61-3.6-3.6s1.61-3.6,3.6-3.6h4.22c15.92,0,27.04,11.36,28.01,12.38l53.19,53.19c.06.06,10.65,10.1,23.88,10.1h3.21c1.99,0,3.6,1.61,3.6,3.6s-1.61,3.6-3.6,3.6Z"/>
    <path class="cls-2" d="m116.55,124.58h-4.86c-22.63,0-39.69-16.91-40.41-17.63L18.07,53.73s-4.98-4.82-11.75-4.82h-2.28c-1.99,0-3.6-1.61-3.6-3.6s1.61-3.6,3.6-3.6h2.28c9.82,0,16.56,6.65,16.84,6.94l53.22,53.22c.16.16,15.72,15.52,35.31,15.52h4.86c1.99,0,3.6,1.61,3.6,3.6s-1.61,3.6-3.6,3.6Z"/>
  </g>
  <g>
    <g>
      <path class="cls-1" d="m191.33,63.05h-23.69l-3.8,11.21h-16.18l22.96-63.47h17.9l22.96,63.47h-16.36l-3.8-11.21Zm-3.98-11.93l-7.87-23.24-7.77,23.24h15.64Z"/>
      <path class="cls-1" d="m233.92,10.79v63.47h-15.46V10.79h15.46Z"/>
      <path class="cls-2" d="m243.95,62.5v-12.48l28.57-40.87h17.27v39.96h7.41v13.38h-7.41v11.75h-15.46v-11.75h-30.38Zm31.46-36.35l-15.19,22.96h15.19v-22.96Z"/>
      <path class="cls-2" d="m348.47,30.86c-1.15-2.11-2.79-3.72-4.93-4.84-2.14-1.11-4.66-1.67-7.55-1.67-5,0-9.01,1.64-12.02,4.93-3.01,3.29-4.52,7.67-4.52,13.15,0,5.85,1.58,10.41,4.75,13.7,3.16,3.29,7.52,4.93,13.06,4.93,3.8,0,7.01-.96,9.63-2.89,2.62-1.93,4.53-4.7,5.74-8.32h-19.62v-11.39h33.63v14.38c-1.15,3.86-3.09,7.44-5.83,10.76-2.74,3.32-6.22,6-10.44,8.05-4.22,2.05-8.98,3.07-14.29,3.07-6.27,0-11.86-1.37-16.77-4.11-4.91-2.74-8.74-6.55-11.48-11.44-2.74-4.88-4.11-10.46-4.11-16.73s1.37-11.86,4.11-16.77c2.74-4.91,6.55-8.74,11.44-11.48,4.88-2.74,10.46-4.11,16.73-4.11,7.59,0,14,1.84,19.21,5.52,5.21,3.68,8.66,8.77,10.35,15.28h-17.09Z"/>
      <path class="cls-2" d="m384.86,71.82c-3.95-2.11-7.05-5.12-9.31-9.04-2.26-3.92-3.39-8.5-3.39-13.74s1.14-9.75,3.44-13.7c2.29-3.95,5.42-6.98,9.4-9.09,3.98-2.11,8.44-3.16,13.38-3.16s9.4,1.06,13.38,3.16c3.98,2.11,7.11,5.14,9.4,9.09,2.29,3.95,3.44,8.51,3.44,13.7s-1.16,9.75-3.48,13.7c-2.32,3.95-5.49,6.98-9.49,9.09-4.01,2.11-8.48,3.16-13.43,3.16s-9.39-1.05-13.34-3.16Zm20.89-13.47c2.08-2.17,3.12-5.27,3.12-9.31s-1.01-7.14-3.03-9.31c-2.02-2.17-4.51-3.25-7.46-3.25s-5.52,1.07-7.5,3.21c-1.99,2.14-2.98,5.26-2.98,9.36s.98,7.14,2.94,9.31c1.96,2.17,4.41,3.25,7.37,3.25s5.47-1.08,7.55-3.25Z"/>
      <path class="cls-2" d="m455.51,59.79l10.94-35.98h16.45l-17.9,50.45h-19.08l-17.9-50.45h16.55l10.94,35.98Z"/>
    </g>
    <g>
      <path class="cls-2" d="m153.88,90.78v1.65h-2.72v8.54h-2.04v-8.54h-2.72v-1.65h7.47Z"/>
      <path class="cls-2" d="m158.44,93.13c.42-.24.91-.36,1.45-.36v2.15h-.54c-.64,0-1.13.15-1.45.45-.33.3-.49.83-.49,1.58v4.03h-2.04v-8.09h2.04v1.26c.26-.43.61-.76,1.03-1.01Z"/>
      <path class="cls-2" d="m168.9,92.88v8.09h-2.06v-1.02c-.26.35-.61.63-1.03.82-.42.2-.88.3-1.38.3-.63,0-1.19-.13-1.68-.4-.49-.27-.87-.66-1.15-1.18s-.42-1.14-.42-1.86v-4.74h2.04v4.45c0,.64.16,1.14.48,1.48.32.35.76.52,1.31.52s1.01-.17,1.33-.52.48-.84.48-1.48v-4.45h2.06Z"/>
      <path class="cls-2" d="m172.23,100.74c-.53-.24-.94-.56-1.25-.97-.31-.41-.48-.86-.5-1.36h2.06c.04.31.19.57.46.77s.6.31,1,.31.69-.08.91-.23c.22-.16.33-.36.33-.6,0-.26-.13-.46-.4-.59s-.69-.27-1.28-.43c-.6-.15-1.1-.3-1.48-.45-.38-.16-.72-.39-.99-.72s-.42-.75-.42-1.3c0-.45.13-.86.39-1.23.26-.37.63-.66,1.11-.88.48-.21,1.05-.32,1.7-.32.96,0,1.73.24,2.31.72.57.48.89,1.13.95,1.95h-1.96c-.03-.32-.16-.58-.4-.77s-.56-.28-.96-.28c-.37,0-.66.07-.85.2-.2.14-.3.33-.3.57,0,.27.14.48.41.62.27.14.7.28,1.27.43.58.15,1.07.3,1.45.45.38.16.71.4.99.72.28.33.42.76.43,1.29,0,.47-.13.89-.39,1.26-.26.37-.63.66-1.11.87-.48.21-1.04.31-1.69.31s-1.26-.12-1.78-.36Z"/>
      <path class="cls-2" d="m181.25,94.56v3.91c0,.27.07.47.2.59.13.12.35.18.66.18h.95v1.72h-1.28c-1.72,0-2.58-.84-2.58-2.51v-3.9h-.96v-1.68h.96v-2h2.06v2h1.81v1.68h-1.81Z"/>
      <path class="cls-2" d="m191.99,97.54h-5.91c.05.58.25,1.04.61,1.37.36.33.8.5,1.33.5.76,0,1.3-.33,1.62-.98h2.2c-.23.78-.68,1.42-1.34,1.92-.66.5-1.47.75-2.44.75-.78,0-1.48-.17-2.09-.52-.62-.35-1.1-.83-1.45-1.47-.35-.63-.52-1.36-.52-2.19s.17-1.57.51-2.2.82-1.12,1.43-1.46c.61-.34,1.32-.51,2.12-.51s1.46.17,2.07.5c.61.33,1.08.8,1.42,1.41.34.61.5,1.31.5,2.09,0,.29-.02.55-.06.79Zm-2.06-1.37c-.01-.53-.2-.95-.57-1.26-.37-.32-.82-.47-1.36-.47-.51,0-.93.15-1.28.46-.35.31-.56.73-.63,1.28h3.84Z"/>
      <path class="cls-2" d="m193.5,94.72c.33-.63.77-1.12,1.34-1.46s1.19-.51,1.88-.51c.53,0,1.03.11,1.5.34s.86.53,1.14.91v-3.84h2.07v10.8h-2.07v-1.2c-.25.4-.61.72-1.07.96-.46.24-.99.36-1.59.36-.68,0-1.3-.18-1.87-.53-.56-.35-1.01-.84-1.34-1.48-.33-.64-.49-1.37-.49-2.2s.16-1.54.49-2.18Zm5.58.93c-.19-.35-.46-.63-.79-.82-.33-.19-.69-.28-1.07-.28s-.73.09-1.05.28c-.32.19-.58.46-.78.81-.2.36-.3.78-.3,1.26s.1.91.3,1.28c.2.36.46.65.79.84.33.19.67.29,1.04.29s.73-.09,1.07-.28c.33-.19.59-.46.79-.82.19-.36.29-.78.29-1.28s-.1-.92-.29-1.28Z"/>
      <path class="cls-2" d="m213.16,99.03h-4.06l-.67,1.94h-2.15l3.66-10.2h2.38l3.66,10.2h-2.16l-.67-1.94Zm-.55-1.64l-1.47-4.26-1.47,4.26h2.95Z"/>
      <path class="cls-2" d="m219.41,90.78v10.19h-2.04v-10.19h2.04Z"/>
      <path class="cls-2" d="m228.61,94.56h-1.42v6.41h-2.07v-6.41h-.92v-1.68h.92v-.41c0-.99.28-1.72.85-2.19.57-.47,1.42-.69,2.56-.66v1.72c-.5,0-.84.07-1.04.25s-.29.49-.29.95v.34h1.42v1.68Z"/>
      <path class="cls-2" d="m231.43,100.58c-.62-.35-1.11-.83-1.47-1.47-.36-.63-.53-1.36-.53-2.19s.18-1.56.55-2.19c.37-.63.86-1.12,1.5-1.47.63-.35,1.34-.52,2.12-.52s1.48.17,2.12.52,1.13.83,1.5,1.47.55,1.36.55,2.19-.19,1.56-.56,2.19c-.37.63-.88,1.12-1.52,1.47s-1.35.52-2.14.52-1.48-.17-2.1-.52Zm3.15-1.53c.33-.18.59-.45.78-.81.19-.36.29-.8.29-1.31,0-.77-.2-1.36-.61-1.77-.4-.41-.9-.62-1.48-.62s-1.07.21-1.47.62c-.39.41-.59,1.01-.59,1.77s.19,1.36.58,1.77c.38.41.87.62,1.45.62.37,0,.72-.09,1.04-.27Z"/>
      <path class="cls-2" d="m242.32,93.13c.42-.24.91-.36,1.45-.36v2.15h-.54c-.64,0-1.13.15-1.45.45-.33.3-.49.83-.49,1.58v4.03h-2.04v-8.09h2.04v1.26c.26-.43.61-.76,1.03-1.01Z"/>
      <path class="cls-2" d="m255.56,90.78v1.65h-2.72v8.54h-2.04v-8.54h-2.72v-1.65h7.47Z"/>
      <path class="cls-2" d="m260.12,93.13c.42-.24.91-.36,1.45-.36v2.15h-.54c-.64,0-1.13.15-1.45.45-.33.3-.49.83-.49,1.58v4.03h-2.04v-8.09h2.04v1.26c.26-.43.61-.76,1.03-1.01Z"/>
      <path class="cls-2" d="m262.91,94.72c.33-.63.77-1.12,1.33-1.46.56-.34,1.18-.51,1.88-.51.6,0,1.13.12,1.58.36.45.24.81.55,1.09.92v-1.15h2.06v8.09h-2.06v-1.18c-.26.38-.63.69-1.09.94s-1,.37-1.6.37c-.68,0-1.3-.18-1.86-.53-.56-.35-1-.84-1.33-1.48-.33-.64-.49-1.37-.49-2.2s.16-1.54.49-2.18Zm5.58.93c-.19-.35-.46-.63-.79-.82-.33-.19-.69-.28-1.07-.28s-.73.09-1.05.28c-.32.19-.58.46-.78.81-.2.36-.3.78-.3,1.26s.1.91.3,1.28c.2.36.46.65.79.84.33.19.67.29,1.04.29s.73-.09,1.07-.28c.33-.19.59-.46.79-.82.19-.36.29-.78.29-1.28s-.1-.92-.29-1.28Z"/>
      <path class="cls-2" d="m279.66,93.68c.59.61.89,1.46.89,2.55v4.74h-2.04v-4.47c0-.64-.16-1.14-.48-1.48s-.76-.52-1.31-.52-1.01.17-1.34.52-.49.84-.49,1.48v4.47h-2.04v-8.09h2.04v1.01c.27-.35.62-.63,1.04-.82.42-.2.89-.3,1.39-.3.96,0,1.74.3,2.34.91Z"/>
      <path class="cls-2" d="m283.81,100.74c-.53-.24-.94-.56-1.25-.97-.31-.41-.48-.86-.5-1.36h2.06c.04.31.19.57.46.77s.6.31,1,.31.69-.08.91-.23c.22-.16.33-.36.33-.6,0-.26-.13-.46-.4-.59s-.69-.27-1.28-.43c-.6-.15-1.1-.3-1.48-.45-.38-.16-.72-.39-.99-.72s-.42-.75-.42-1.3c0-.45.13-.86.39-1.23.26-.37.63-.66,1.11-.88.48-.21,1.05-.32,1.7-.32.96,0,1.73.24,2.31.72.57.48.89,1.13.95,1.95h-1.96c-.03-.32-.16-.58-.4-.77s-.56-.28-.96-.28c-.37,0-.66.07-.85.2-.2.14-.3.33-.3.57,0,.27.14.48.41.62.27.14.7.28,1.27.43.58.15,1.07.3,1.45.45.38.16.71.4.99.72.28.33.42.76.43,1.29,0,.47-.13.89-.39,1.26-.26.37-.63.66-1.11.87-.48.21-1.04.31-1.69.31s-1.26-.12-1.78-.36Z"/>
      <path class="cls-2" d="m293.58,93.12c.46-.25.99-.37,1.58-.37.69,0,1.32.17,1.88.51.56.34,1,.82,1.33,1.45.33.63.49,1.36.49,2.18s-.16,1.56-.49,2.2-.77,1.13-1.33,1.48c-.56.35-1.19.53-1.88.53-.59,0-1.12-.12-1.57-.36-.45-.24-.82-.55-1.1-.92v5.01h-2.04v-11.94h2.04v1.17c.26-.37.63-.68,1.09-.93Zm2.89,2.51c-.2-.36-.46-.63-.79-.81-.33-.18-.68-.28-1.06-.28s-.72.1-1.04.28c-.33.19-.59.46-.79.83-.2.36-.3.78-.3,1.27s.1.91.3,1.27c.2.36.46.64.79.82.33.19.67.28,1.04.28s.73-.1,1.06-.29.59-.47.79-.83c.2-.36.3-.79.3-1.28s-.1-.91-.3-1.26Z"/>
      <path class="cls-2" d="m300.31,94.72c.33-.63.77-1.12,1.33-1.46.56-.34,1.18-.51,1.88-.51.6,0,1.13.12,1.58.36.45.24.81.55,1.09.92v-1.15h2.06v8.09h-2.06v-1.18c-.26.38-.63.69-1.09.94s-1,.37-1.6.37c-.68,0-1.3-.18-1.86-.53-.56-.35-1-.84-1.33-1.48-.33-.64-.49-1.37-.49-2.2s.16-1.54.49-2.18Zm5.58.93c-.19-.35-.46-.63-.79-.82-.33-.19-.69-.28-1.07-.28s-.73.09-1.05.28c-.32.19-.58.46-.78.81-.2.36-.3.78-.3,1.26s.1.91.3,1.28c.2.36.46.65.79.84.33.19.67.29,1.04.29s.73-.09,1.07-.28c.33-.19.59-.46.79-.82.19-.36.29-.78.29-1.28s-.1-.92-.29-1.28Z"/>
      <path class="cls-2" d="m313.32,93.13c.42-.24.91-.36,1.45-.36v2.15h-.54c-.64,0-1.13.15-1.45.45-.33.3-.49.83-.49,1.58v4.03h-2.04v-8.09h2.04v1.26c.26-.43.61-.76,1.03-1.01Z"/>
      <path class="cls-2" d="m323.6,97.54h-5.91c.05.58.25,1.04.61,1.37.36.33.8.5,1.33.5.76,0,1.3-.33,1.62-.98h2.2c-.23.78-.68,1.42-1.34,1.92-.66.5-1.47.75-2.44.75-.78,0-1.48-.17-2.09-.52-.62-.35-1.1-.83-1.45-1.47-.35-.63-.52-1.36-.52-2.19s.17-1.57.51-2.2.82-1.12,1.43-1.46c.61-.34,1.32-.51,2.12-.51s1.46.17,2.07.5c.61.33,1.08.8,1.42,1.41.34.61.5,1.31.5,2.09,0,.29-.02.55-.06.79Zm-2.06-1.37c-.01-.53-.2-.95-.57-1.26-.37-.32-.82-.47-1.36-.47-.51,0-.93.15-1.28.46-.35.31-.56.73-.63,1.28h3.84Z"/>
      <path class="cls-2" d="m331.97,93.68c.59.61.89,1.46.89,2.55v4.74h-2.04v-4.47c0-.64-.16-1.14-.48-1.48s-.76-.52-1.31-.52-1.01.17-1.34.52-.49.84-.49,1.48v4.47h-2.04v-8.09h2.04v1.01c.27-.35.62-.63,1.04-.82.42-.2.89-.3,1.39-.3.96,0,1.74.3,2.34.91Z"/>
      <path class="cls-2" d="m337.18,94.56v3.91c0,.27.07.47.2.59.13.12.35.18.66.18h.95v1.72h-1.28c-1.72,0-2.58-.84-2.58-2.51v-3.9h-.96v-1.68h.96v-2h2.06v2h1.81v1.68h-1.81Z"/>
      <path class="cls-2" d="m350.98,95.46c-.26.48-.66.86-1.21,1.15s-1.24.44-2.08.44h-1.71v3.91h-2.04v-10.19h3.75c.79,0,1.46.14,2.01.41s.97.65,1.25,1.12c.28.48.42,1.02.42,1.62,0,.55-.13,1.06-.39,1.53Zm-2.12-.45c.27-.26.41-.62.41-1.09,0-.99-.55-1.49-1.66-1.49h-1.62v2.96h1.62c.56,0,.98-.13,1.26-.39Z"/>
      <path class="cls-2" d="m360.45,92.88v8.09h-2.06v-1.02c-.26.35-.61.63-1.03.82-.42.2-.88.3-1.38.3-.63,0-1.19-.13-1.68-.4-.49-.27-.87-.66-1.15-1.18s-.42-1.14-.42-1.86v-4.74h2.04v4.45c0,.64.16,1.14.48,1.48.32.35.76.52,1.31.52s1.01-.17,1.33-.52.48-.84.48-1.48v-4.45h2.06Z"/>
      <path class="cls-2" d="m365.6,93.11c.46-.24.99-.36,1.58-.36.69,0,1.32.17,1.88.51.56.34,1,.82,1.33,1.45.33.63.49,1.36.49,2.18s-.16,1.56-.49,2.2-.77,1.13-1.33,1.48c-.56.35-1.19.53-1.88.53-.6,0-1.13-.12-1.58-.36-.45-.24-.81-.55-1.09-.93v1.15h-2.04v-10.8h2.04v3.9c.26-.39.63-.71,1.09-.95Zm2.89,2.52c-.2-.36-.46-.63-.79-.81-.33-.18-.68-.28-1.06-.28s-.72.1-1.04.28c-.33.19-.59.46-.79.83-.2.36-.3.78-.3,1.27s.1.91.3,1.27c.2.36.46.64.79.82.33.19.67.28,1.04.28s.73-.1,1.06-.29.59-.47.79-.83c.2-.36.3-.79.3-1.28s-.1-.91-.3-1.26Z"/>
      <path class="cls-2" d="m374.41,90.16v10.8h-2.04v-10.8h2.04Z"/>
      <path class="cls-2" d="m376.56,91.57c-.24-.23-.36-.51-.36-.85s.12-.63.36-.85c.24-.23.54-.34.9-.34s.66.11.9.34c.24.23.36.51.36.85s-.12.63-.36.85c-.24.23-.54.34-.9.34s-.66-.11-.9-.34Zm1.9,1.31v8.09h-2.04v-8.09h2.04Z"/>
      <path class="cls-2" d="m380.47,94.73c.34-.63.81-1.11,1.42-1.46.6-.35,1.29-.52,2.07-.52,1,0,1.83.25,2.49.75s1.1,1.2,1.32,2.11h-2.2c-.12-.35-.31-.63-.59-.82-.28-.2-.62-.3-1.03-.3-.58,0-1.05.21-1.39.63-.34.42-.51,1.02-.51,1.8s.17,1.36.51,1.79c.34.42.8.63,1.39.63.83,0,1.37-.37,1.62-1.11h2.2c-.22.88-.67,1.57-1.33,2.09-.66.52-1.49.77-2.48.77-.78,0-1.47-.17-2.07-.52-.6-.35-1.08-.83-1.42-1.46-.34-.63-.51-1.36-.51-2.2s.17-1.57.51-2.2Z"/>
      <path class="cls-2" d="m399.84,93.84c-.23-.43-.55-.75-.96-.98s-.89-.34-1.43-.34c-.6,0-1.14.14-1.61.41-.47.27-.83.66-1.09,1.17s-.39,1.09-.39,1.75.13,1.28.4,1.78c.27.51.64.9,1.12,1.17.48.27,1.03.41,1.66.41.78,0,1.42-.21,1.91-.62s.82-.99.98-1.73h-3.5v-1.56h5.52v1.78c-.14.71-.43,1.37-.88,1.97-.45.6-1.02,1.09-1.73,1.45-.71.36-1.5.55-2.37.55-.98,0-1.87-.22-2.66-.66-.79-.44-1.42-1.06-1.87-1.85-.45-.79-.68-1.68-.68-2.69s.23-1.9.68-2.69c.45-.79,1.08-1.41,1.87-1.85.79-.44,1.68-.66,2.65-.66,1.15,0,2.15.28,2.99.84.85.56,1.43,1.35,1.75,2.36h-2.35Z"/>
      <path class="cls-2" d="m405.44,100.58c-.62-.35-1.11-.83-1.47-1.47-.36-.63-.53-1.36-.53-2.19s.18-1.56.55-2.19c.37-.63.86-1.12,1.5-1.47.63-.35,1.34-.52,2.12-.52s1.48.17,2.12.52,1.13.83,1.5,1.47.55,1.36.55,2.19-.19,1.56-.56,2.19c-.37.63-.88,1.12-1.52,1.47s-1.35.52-2.14.52-1.48-.17-2.1-.52Zm3.15-1.53c.33-.18.59-.45.78-.81.19-.36.29-.8.29-1.31,0-.77-.2-1.36-.61-1.77-.4-.41-.9-.62-1.48-.62s-1.07.21-1.47.62c-.39.41-.59,1.01-.59,1.77s.19,1.36.58,1.77c.38.41.87.62,1.45.62.37,0,.72-.09,1.04-.27Z"/>
      <path class="cls-2" d="m416.64,99.08l2.04-6.2h2.18l-2.99,8.09h-2.48l-2.98-8.09h2.19l2.04,6.2Z"/>
      <path class="cls-2" d="m429.47,97.54h-5.91c.05.58.25,1.04.61,1.37.36.33.8.5,1.33.5.76,0,1.3-.33,1.62-.98h2.2c-.23.78-.68,1.42-1.34,1.92-.66.5-1.47.75-2.44.75-.78,0-1.48-.17-2.09-.52-.62-.35-1.1-.83-1.45-1.47-.35-.63-.52-1.36-.52-2.19s.17-1.57.51-2.2.82-1.12,1.43-1.46c.61-.34,1.32-.51,2.12-.51s1.46.17,2.07.5c.61.33,1.08.8,1.42,1.41.34.61.5,1.31.5,2.09,0,.29-.02.55-.06.79Zm-2.06-1.37c-.01-.53-.2-.95-.57-1.26-.37-.32-.82-.47-1.36-.47-.51,0-.93.15-1.28.46-.35.31-.56.73-.63,1.28h3.84Z"/>
      <path class="cls-2" d="m434.09,93.13c.42-.24.91-.36,1.45-.36v2.15h-.54c-.64,0-1.13.15-1.45.45-.33.3-.49.83-.49,1.58v4.03h-2.04v-8.09h2.04v1.26c.26-.43.61-.76,1.03-1.01Z"/>
      <path class="cls-2" d="m443.74,93.68c.59.61.89,1.46.89,2.55v4.74h-2.04v-4.47c0-.64-.16-1.14-.48-1.48s-.76-.52-1.31-.52-1.01.17-1.34.52-.49.84-.49,1.48v4.47h-2.04v-8.09h2.04v1.01c.27-.35.62-.63,1.04-.82.42-.2.89-.3,1.39-.3.96,0,1.74.3,2.34.91Z"/>
      <path class="cls-2" d="m446.53,94.72c.33-.63.77-1.12,1.33-1.46.56-.34,1.18-.51,1.88-.51.6,0,1.13.12,1.58.36.45.24.81.55,1.09.92v-1.15h2.06v8.09h-2.06v-1.18c-.26.38-.63.69-1.09.94s-1,.37-1.6.37c-.68,0-1.3-.18-1.86-.53-.56-.35-1-.84-1.33-1.48-.33-.64-.49-1.37-.49-2.2s.16-1.54.49-2.18Zm5.58.93c-.19-.35-.46-.63-.79-.82-.33-.19-.69-.28-1.07-.28s-.73.09-1.05.28c-.32.19-.58.46-.78.81-.2.36-.3.78-.3,1.26s.1.91.3,1.28c.2.36.46.65.79.84.33.19.67.29,1.04.29s.73-.09,1.07-.28c.33-.19.59-.46.79-.82.19-.36.29-.78.29-1.28s-.1-.92-.29-1.28Z"/>
      <path class="cls-2" d="m463.28,93.68c.59.61.89,1.46.89,2.55v4.74h-2.04v-4.47c0-.64-.16-1.14-.48-1.48s-.76-.52-1.31-.52-1.01.17-1.34.52-.49.84-.49,1.48v4.47h-2.04v-8.09h2.04v1.01c.27-.35.62-.63,1.04-.82.42-.2.89-.3,1.39-.3.96,0,1.74.3,2.34.91Z"/>
      <path class="cls-2" d="m466.1,94.73c.34-.63.81-1.11,1.42-1.46.6-.35,1.29-.52,2.07-.52,1,0,1.83.25,2.49.75s1.1,1.2,1.32,2.11h-2.2c-.12-.35-.31-.63-.59-.82-.28-.2-.62-.3-1.03-.3-.58,0-1.05.21-1.39.63-.34.42-.51,1.02-.51,1.8s.17,1.36.51,1.79c.34.42.8.63,1.39.63.83,0,1.37-.37,1.62-1.11h2.2c-.22.88-.67,1.57-1.33,2.09-.66.52-1.49.77-2.48.77-.78,0-1.47-.17-2.07-.52-.6-.35-1.08-.83-1.42-1.46-.34-.63-.51-1.36-.51-2.2s.17-1.57.51-2.2Z"/>
      <path class="cls-2" d="m482.37,97.54h-5.91c.05.58.25,1.04.61,1.37.36.33.8.5,1.33.5.76,0,1.3-.33,1.62-.98h2.2c-.23.78-.68,1.42-1.34,1.92-.66.5-1.47.75-2.44.75-.78,0-1.48-.17-2.09-.52-.62-.35-1.1-.83-1.45-1.47-.35-.63-.52-1.36-.52-2.19s.17-1.57.51-2.2.82-1.12,1.43-1.46c.61-.34,1.32-.51,2.12-.51s1.46.17,2.07.5c.61.33,1.08.8,1.42,1.41.34.61.5,1.31.5,2.09,0,.29-.02.55-.06.79Zm-2.06-1.37c-.01-.53-.2-.95-.57-1.26-.37-.32-.82-.47-1.36-.47-.51,0-.93.15-1.28.46-.35.31-.56.73-.63,1.28h3.84Z"/>
      <path class="cls-2" d="m150.65,112.08h-1.42v6.41h-2.07v-6.41h-.92v-1.68h.92v-.41c0-.99.28-1.72.85-2.19.57-.47,1.42-.69,2.56-.66v1.72c-.5,0-.84.07-1.04.25s-.29.49-.29.95v.34h1.42v1.68Z"/>
      <path class="cls-2" d="m153.47,118.1c-.62-.35-1.11-.83-1.47-1.47-.36-.63-.53-1.36-.53-2.19s.18-1.56.55-2.19c.37-.63.86-1.12,1.5-1.47.63-.35,1.34-.52,2.12-.52s1.48.17,2.12.52,1.13.83,1.5,1.47.55,1.36.55,2.19-.19,1.56-.56,2.19c-.37.63-.88,1.12-1.52,1.47s-1.35.52-2.14.52-1.48-.17-2.1-.52Zm3.15-1.53c.33-.18.59-.45.78-.81.19-.36.29-.8.29-1.31,0-.77-.2-1.36-.61-1.77-.4-.41-.9-.62-1.48-.62s-1.07.21-1.47.62c-.39.41-.59,1.01-.59,1.77s.19,1.36.58,1.77c.38.41.87.62,1.45.62.37,0,.72-.09,1.04-.27Z"/>
      <path class="cls-2" d="m162.61,118.26c-.53-.24-.94-.56-1.25-.97-.31-.41-.48-.86-.5-1.36h2.06c.04.31.19.57.46.77s.6.31,1,.31.69-.08.91-.23c.22-.16.33-.36.33-.6,0-.26-.13-.46-.4-.59s-.69-.27-1.28-.43c-.6-.15-1.1-.3-1.48-.45-.38-.16-.72-.39-.99-.72s-.42-.75-.42-1.3c0-.45.13-.86.39-1.23.26-.37.63-.66,1.11-.88.48-.21,1.05-.32,1.7-.32.96,0,1.73.24,2.31.72.57.48.89,1.13.95,1.95h-1.96c-.03-.32-.16-.58-.4-.77s-.56-.28-.96-.28c-.37,0-.66.07-.85.2-.2.14-.3.33-.3.57,0,.27.14.48.41.62.27.14.7.28,1.27.43.58.15,1.07.3,1.45.45.38.16.71.4.99.72.28.33.42.76.43,1.29,0,.47-.13.89-.39,1.26-.26.37-.63.66-1.11.87-.48.21-1.04.31-1.69.31s-1.26-.12-1.78-.36Z"/>
      <path class="cls-2" d="m171.63,112.08v3.91c0,.27.07.47.2.59.13.12.35.18.66.18h.95v1.72h-1.28c-1.72,0-2.58-.84-2.58-2.51v-3.9h-.96v-1.68h.96v-2h2.06v2h1.81v1.68h-1.81Z"/>
      <path class="cls-2" d="m182.37,115.06h-5.91c.05.58.25,1.04.61,1.37.36.33.8.5,1.33.5.76,0,1.3-.33,1.62-.98h2.2c-.23.78-.68,1.42-1.34,1.92-.66.5-1.47.75-2.44.75-.78,0-1.48-.17-2.09-.52-.62-.35-1.1-.83-1.45-1.47-.35-.63-.52-1.36-.52-2.19s.17-1.57.51-2.2.82-1.12,1.43-1.46c.61-.34,1.32-.51,2.12-.51s1.46.17,2.07.5c.61.33,1.08.8,1.42,1.41.34.61.5,1.31.5,2.09,0,.29-.02.55-.06.79Zm-2.06-1.37c-.01-.53-.2-.95-.57-1.26-.37-.32-.82-.47-1.36-.47-.51,0-.93.15-1.28.46-.35.31-.56.73-.63,1.28h3.84Z"/>
      <path class="cls-2" d="m186.99,110.65c.42-.24.91-.36,1.45-.36v2.15h-.54c-.64,0-1.13.15-1.45.45-.33.3-.49.83-.49,1.58v4.03h-2.04v-8.09h2.04v1.26c.26-.43.61-.76,1.03-1.01Z"/>
      <path class="cls-2" d="m189.96,109.09c-.24-.23-.36-.51-.36-.85s.12-.63.36-.85c.24-.23.54-.34.9-.34s.66.11.9.34c.24.23.36.51.36.85s-.12.63-.36.85c-.24.23-.54.34-.9.34s-.66-.11-.9-.34Zm1.9,1.31v8.09h-2.04v-8.09h2.04Z"/>
      <path class="cls-2" d="m200.69,111.19c.59.61.89,1.46.89,2.55v4.74h-2.04v-4.47c0-.64-.16-1.14-.48-1.48s-.76-.52-1.31-.52-1.01.17-1.34.52-.49.84-.49,1.48v4.47h-2.04v-8.09h2.04v1.01c.27-.35.62-.63,1.04-.82.42-.2.89-.3,1.39-.3.96,0,1.74.3,2.34.91Z"/>
      <path class="cls-2" d="m208.29,110.63c.46.24.82.55,1.08.93v-1.15h2.06v8.15c0,.75-.15,1.42-.45,2.01-.3.59-.75,1.06-1.36,1.4s-1.33.52-2.19.52c-1.15,0-2.09-.27-2.82-.8s-1.15-1.27-1.25-2.19h2.03c.11.37.34.66.69.88s.79.33,1.29.33c.59,0,1.08-.18,1.45-.53s.55-.89.55-1.61v-1.26c-.26.38-.63.7-1.09.95s-.99.38-1.58.38c-.68,0-1.3-.18-1.87-.53-.56-.35-1.01-.84-1.34-1.48-.33-.64-.49-1.37-.49-2.2s.16-1.54.49-2.18c.33-.63.77-1.12,1.33-1.46.56-.34,1.18-.51,1.88-.51.6,0,1.13.12,1.59.36Zm.79,2.54c-.19-.35-.46-.63-.79-.82-.33-.19-.69-.28-1.07-.28s-.73.09-1.05.28c-.32.19-.58.46-.78.81-.2.36-.3.78-.3,1.26s.1.91.3,1.28c.2.36.46.65.79.84.33.19.67.29,1.04.29s.73-.09,1.07-.28c.33-.19.59-.46.79-.82.19-.36.29-.78.29-1.28s-.1-.92-.29-1.28Z"/>
      <path class="cls-2" d="m223.29,108.92c.81.42,1.44,1.01,1.88,1.79s.66,1.67.66,2.69-.22,1.92-.66,2.68-1.07,1.36-1.88,1.77-1.75.63-2.82.63h-3.56v-10.19h3.56c1.07,0,2.01.21,2.82.63Zm-.42,6.95c.58-.58.88-1.41.88-2.47s-.29-1.89-.88-2.49c-.58-.6-1.41-.9-2.48-.9h-1.45v6.73h1.45c1.07,0,1.9-.29,2.48-.88Z"/>
      <path class="cls-2" d="m234.83,115.06h-5.91c.05.58.25,1.04.61,1.37.36.33.8.5,1.33.5.76,0,1.3-.33,1.62-.98h2.2c-.23.78-.68,1.42-1.34,1.92-.66.5-1.47.75-2.44.75-.78,0-1.48-.17-2.09-.52-.62-.35-1.1-.83-1.45-1.47-.35-.63-.52-1.36-.52-2.19s.17-1.57.51-2.2.82-1.12,1.43-1.46c.61-.34,1.32-.51,2.12-.51s1.46.17,2.07.5c.61.33,1.08.8,1.42,1.41.34.61.5,1.31.5,2.09,0,.29-.02.55-.06.79Zm-2.06-1.37c-.01-.53-.2-.95-.57-1.26-.37-.32-.82-.47-1.36-.47-.51,0-.93.15-1.28.46-.35.31-.56.73-.63,1.28h3.84Z"/>
      <path class="cls-2" d="m248.82,111.19c.61.61.91,1.46.91,2.55v4.74h-2.04v-4.47c0-.63-.16-1.12-.48-1.45-.32-.34-.76-.5-1.31-.5s-1,.17-1.32.5c-.33.34-.49.82-.49,1.45v4.47h-2.04v-4.47c0-.63-.16-1.12-.48-1.45-.32-.34-.76-.5-1.31-.5s-1.01.17-1.34.5c-.33.34-.49.82-.49,1.45v4.47h-2.04v-8.09h2.04v.98c.26-.34.6-.61,1.01-.8s.87-.29,1.37-.29c.63,0,1.2.13,1.69.4.5.27.88.65,1.15,1.15.26-.47.64-.84,1.15-1.12.5-.28,1.04-.42,1.63-.42.99,0,1.79.3,2.4.91Z"/>
      <path class="cls-2" d="m253.16,118.1c-.62-.35-1.11-.83-1.47-1.47-.36-.63-.53-1.36-.53-2.19s.18-1.56.55-2.19c.37-.63.86-1.12,1.5-1.47.63-.35,1.34-.52,2.12-.52s1.48.17,2.12.52,1.13.83,1.5,1.47.55,1.36.55,2.19-.19,1.56-.56,2.19c-.37.63-.88,1.12-1.52,1.47s-1.35.52-2.14.52-1.48-.17-2.1-.52Zm3.15-1.53c.33-.18.59-.45.78-.81.19-.36.29-.8.29-1.31,0-.77-.2-1.36-.61-1.77-.4-.41-.9-.62-1.48-.62s-1.07.21-1.47.62c-.39.41-.59,1.01-.59,1.77s.19,1.36.58,1.77c.38.41.87.62,1.45.62.37,0,.72-.09,1.04-.27Z"/>
      <path class="cls-2" d="m260.97,112.25c.34-.63.81-1.11,1.42-1.46.6-.35,1.29-.52,2.07-.52,1,0,1.83.25,2.49.75s1.1,1.2,1.32,2.11h-2.2c-.12-.35-.31-.63-.59-.82-.28-.2-.62-.3-1.03-.3-.58,0-1.05.21-1.39.63-.34.42-.51,1.02-.51,1.8s.17,1.36.51,1.79c.34.42.8.63,1.39.63.83,0,1.37-.37,1.62-1.11h2.2c-.22.88-.67,1.57-1.33,2.09-.66.52-1.49.77-2.48.77-.78,0-1.47-.17-2.07-.52-.6-.35-1.08-.83-1.42-1.46-.34-.63-.51-1.36-.51-2.2s.17-1.57.51-2.2Z"/>
      <path class="cls-2" d="m272.85,110.65c.42-.24.91-.36,1.45-.36v2.15h-.54c-.64,0-1.13.15-1.45.45-.33.3-.49.83-.49,1.58v4.03h-2.04v-8.09h2.04v1.26c.26-.43.61-.76,1.03-1.01Z"/>
      <path class="cls-2" d="m275.64,112.24c.33-.63.77-1.12,1.33-1.46.56-.34,1.18-.51,1.88-.51.6,0,1.13.12,1.58.36.45.24.81.55,1.09.92v-1.15h2.06v8.09h-2.06v-1.18c-.26.38-.63.69-1.09.94s-1,.37-1.6.37c-.68,0-1.3-.18-1.86-.53-.56-.35-1-.84-1.33-1.48-.33-.64-.49-1.37-.49-2.2s.16-1.54.49-2.18Zm5.58.93c-.19-.35-.46-.63-.79-.82-.33-.19-.69-.28-1.07-.28s-.73.09-1.05.28c-.32.19-.58.46-.78.81-.2.36-.3.78-.3,1.26s.1.91.3,1.28c.2.36.46.65.79.84.33.19.67.29,1.04.29s.73-.09,1.07-.28c.33-.19.59-.46.79-.82.19-.36.29-.78.29-1.28s-.1-.92-.29-1.28Z"/>
      <path class="cls-2" d="m287.95,112.08v3.91c0,.27.07.47.2.59.13.12.35.18.66.18h.95v1.72h-1.28c-1.72,0-2.58-.84-2.58-2.51v-3.9h-.96v-1.68h.96v-2h2.06v2h1.81v1.68h-1.81Z"/>
      <path class="cls-2" d="m291.38,109.09c-.24-.23-.36-.51-.36-.85s.12-.63.36-.85c.24-.23.54-.34.9-.34s.66.11.9.34c.24.23.36.51.36.85s-.12.63-.36.85c-.24.23-.54.34-.9.34s-.66-.11-.9-.34Zm1.9,1.31v8.09h-2.04v-8.09h2.04Z"/>
      <path class="cls-2" d="m295.28,112.25c.34-.63.81-1.11,1.42-1.46.6-.35,1.29-.52,2.07-.52,1,0,1.83.25,2.49.75s1.1,1.2,1.32,2.11h-2.2c-.12-.35-.31-.63-.59-.82-.28-.2-.62-.3-1.03-.3-.58,0-1.05.21-1.39.63-.34.42-.51,1.02-.51,1.8s.17,1.36.51,1.79c.34.42.8.63,1.39.63.83,0,1.37-.37,1.62-1.11h2.2c-.22.88-.67,1.57-1.33,2.09-.66.52-1.49.77-2.48.77-.78,0-1.47-.17-2.07-.52-.6-.35-1.08-.83-1.42-1.46-.34-.63-.51-1.36-.51-2.2s.17-1.57.51-2.2Z"/>
      <path class="cls-2" d="m316.71,108.3l-3.74,10.19h-2.48l-3.74-10.19h2.19l2.8,8.1,2.79-8.1h2.18Z"/>
      <path class="cls-2" d="m317.9,112.24c.33-.63.77-1.12,1.33-1.46.56-.34,1.18-.51,1.88-.51.6,0,1.13.12,1.58.36.45.24.81.55,1.09.92v-1.15h2.06v8.09h-2.06v-1.18c-.26.38-.63.69-1.09.94s-1,.37-1.6.37c-.68,0-1.3-.18-1.86-.53-.56-.35-1-.84-1.33-1.48-.33-.64-.49-1.37-.49-2.2s.16-1.54.49-2.18Zm5.58.93c-.19-.35-.46-.63-.79-.82-.33-.19-.69-.28-1.07-.28s-.73.09-1.05.28c-.32.19-.58.46-.78.81-.2.36-.3.78-.3,1.26s.1.91.3,1.28c.2.36.46.65.79.84.33.19.67.29,1.04.29s.73-.09,1.07-.28c.33-.19.59-.46.79-.82.19-.36.29-.78.29-1.28s-.1-.92-.29-1.28Z"/>
      <path class="cls-2" d="m329.88,107.68v10.8h-2.04v-10.8h2.04Z"/>
      <path class="cls-2" d="m339.53,110.4v8.09h-2.06v-1.02c-.26.35-.61.63-1.03.82-.42.2-.88.3-1.38.3-.63,0-1.19-.13-1.68-.4-.49-.27-.87-.66-1.15-1.18s-.42-1.14-.42-1.86v-4.74h2.04v4.45c0,.64.16,1.14.48,1.48.32.35.76.52,1.31.52s1.01-.17,1.33-.52.48-.84.48-1.48v-4.45h2.06Z"/>
      <path class="cls-2" d="m349.01,115.06h-5.91c.05.58.25,1.04.61,1.37.36.33.8.5,1.33.5.76,0,1.3-.33,1.62-.98h2.2c-.23.78-.68,1.42-1.34,1.92-.66.5-1.47.75-2.44.75-.78,0-1.48-.17-2.09-.52-.62-.35-1.1-.83-1.45-1.47-.35-.63-.52-1.36-.52-2.19s.17-1.57.51-2.2.82-1.12,1.43-1.46c.61-.34,1.32-.51,2.12-.51s1.46.17,2.07.5c.61.33,1.08.8,1.42,1.41.34.61.5,1.31.5,2.09,0,.29-.02.55-.06.79Zm-2.06-1.37c-.01-.53-.2-.95-.57-1.26-.37-.32-.82-.47-1.36-.47-.51,0-.93.15-1.28.46-.35.31-.56.73-.63,1.28h3.84Z"/>
      <path class="cls-2" d="m351.87,118.26c-.53-.24-.94-.56-1.25-.97-.31-.41-.48-.86-.5-1.36h2.06c.04.31.19.57.46.77s.6.31,1,.31.69-.08.91-.23c.22-.16.33-.36.33-.6,0-.26-.13-.46-.4-.59s-.69-.27-1.28-.43c-.6-.15-1.1-.3-1.48-.45-.38-.16-.72-.39-.99-.72s-.42-.75-.42-1.3c0-.45.13-.86.39-1.23.26-.37.63-.66,1.11-.88.48-.21,1.05-.32,1.7-.32.96,0,1.73.24,2.31.72.57.48.89,1.13.95,1.95h-1.96c-.03-.32-.16-.58-.4-.77s-.56-.28-.96-.28c-.37,0-.66.07-.85.2-.2.14-.3.33-.3.57,0,.27.14.48.41.62.27.14.7.28,1.27.43.58.15,1.07.3,1.45.45.38.16.71.4.99.72.28.33.42.76.43,1.29,0,.47-.13.89-.39,1.26-.26.37-.63.66-1.11.87-.48.21-1.04.31-1.69.31s-1.26-.12-1.78-.36Z"/>
    </g>
  </g>
</svg>